<svg id="Layer_1" enable-background="new 0 0 512.184 512.184" height="512" viewBox="0 0 512.184 512.184" width="512" xmlns="http://www.w3.org/2000/svg"><path d="m355.822 58.7c0 47.92-79.82 85.2-79.82 85.2s-19.96-9.32-39.91-24.63c-19.249-14.742-39.91-36.212-39.91-60.57 0-23.018 18.326-41.994 41.47-42.59 16.075-.424 30.741 8.221 38.35 21.96 7.707-13.917 22.538-22.413 38.33-21.95 23.143.571 41.49 19.519 41.49 42.58z" fill="#ea8692"/><path d="m355.392 52.65c-3.007 16.329-21.657 30.763-40.125 41.318-24.322 13.901-54.259 13.884-78.577-.024-15.538-8.887-36.843-23.692-40.078-41.284 5.719-40.349 59.648-50.24 79.39-14.59 19.776-35.711 73.707-25.671 79.39 14.58z" fill="#fe929f"/><path d="m266.662 468.02c-104.589 71.905-250.57-2.02-250.57-131.92 0-88.37 71.63-160 160-160 44.03 0 83.91 17.79 112.84 46.56-17.27 8.43-32.59 20.22-45.11 34.52-66.453-57.101-171.73-10.743-171.73 78.92 0 57.44 46.56 104 104 104 69.156 0 118.924-66.324 100.05-132.46.749 0 12.094-25.792 45.48-38.12 31.662 69.084 10.496 153.467-54.96 198.5z" fill="#ffe773"/><path d="m496.092 352.1c0 118.931-135.625 185.194-229.43 115.92 15.8-10.87 29.55-24.51 40.56-40.21 58.084 34.55 132.87-7.225 132.87-75.71 0-48.6-39.4-88-88-88-54.07 0-75.475 43.53-75.95 43.53v.01c-13.616 23.18-15.436 50.7-6.78 74.51-9.05 18.31-23.34 33.57-40.9 43.81-42.931-71.628-15.768-166.085 60.47-203.3 94.629-46.298 207.16 22.331 207.16 129.44z" fill="#efd66c"/><path d="m292.098 203.744c-32.116-28.217-72.892-43.644-116.006-43.644-97.047 0-176 78.953-176 176 0 137.303 150.391 220.502 266.277 151.107 104.469 66.57 245.723-7.726 245.723-135.107 0-113.829-115.777-190.685-219.994-148.356zm-260.006 132.356c0-118.839 135.847-185.203 229.448-115.945-6.876 4.721-13.359 9.979-19.428 15.742-79.389-52.313-186.02 4.726-186.02 100.203 0 92.486 100.621 150.048 180.56 103.603 20.963-13.38 35.87-27.677 47.198-50.769 12.731-26.876 14.918-53.513 9.482-78.441 5.333-7.518 12.057-13.934 19.749-18.907 30.263 92.979-39.257 188.514-136.99 188.514-79.4 0-143.999-64.599-143.999-144zm174.49 82.553c-57.544 21.231-118.49-21.596-118.49-82.553 0-68.013 74.354-110.402 132.886-75.688-32.548 46.488-37.941 106.788-14.396 158.241zm136.602-137.999c43.197-5.318 80.908 28.435 80.908 71.445 0 48.32-47.076 83.341-93.669 68.671 24.09-43.777 27.742-95.071 12.761-140.116zm-48.763 185.744c6.26-5.685 12.094-11.82 17.489-18.365 68.282 28.596 144.182-21.669 144.182-95.934 0-72.016-71.866-122.371-139.527-97.757-48.124 16.366-80.102 71.332-64.504 126.199-4.76 8.138-10.769 15.408-17.805 21.597-26.561-62.544.514-135.236 61.708-165.108 84.293-41.236 184.129 20.232 184.129 115.068-.001 95.733-101.49 156.97-185.672 114.3z"/><path d="m226.352 131.965c21.099 16.186 42.001 26.019 42.88 26.43 4.292 2.003 9.248 2.004 13.54 0 .88-.41 21.781-10.243 42.881-26.43 104.154-79.9 7.571-165.626-49.65-118.484-57.368-47.262-153.586 38.767-49.651 118.484zm12.399-99.865c9.657 0 18.567 5.257 23.255 13.718 6.081 10.976 21.906 10.985 27.992 0 13.285-23.979 49.828-14.443 49.828 12.882 0 27.442-41.856 55.498-63.78 67.255-23.772-12.785-63.868-40.237-63.868-67.255 0-14.668 11.921-26.6 26.573-26.6z"/></svg>